<svg width="18" height="18" viewBox="0 0 18 18" fill="none" xmlns="http://www.w3.org/2000/svg">
<path d="M17.2015 5.61276C17.1914 4.91884 17.0631 4.23042 16.8174 3.58142C16.3875 2.47317 15.5121 1.59684 14.4038 1.16784C13.7631 0.926755 13.0856 0.797505 12.4 0.782839C11.5181 0.743422 11.2386 0.732422 9.00007 0.732422C6.76157 0.732422 6.47465 0.732422 5.59923 0.782839C4.91448 0.797505 4.23706 0.926755 3.59631 1.16784C2.48806 1.59684 1.61173 2.47317 1.18273 3.58142C0.941648 4.22217 0.811481 4.89959 0.798648 5.58434C0.759231 6.46709 0.747314 6.74667 0.747314 8.98517C0.747314 11.2237 0.747314 11.5097 0.798648 12.386C0.812398 13.0717 0.941648 13.7482 1.18273 14.3908C1.61265 15.4981 2.48806 16.3744 3.59723 16.8034C4.23523 17.0528 4.91265 17.1939 5.60015 17.2159C6.4829 17.2553 6.76248 17.2673 9.00098 17.2673C11.2395 17.2673 11.5264 17.2673 12.4018 17.2159C13.0866 17.2022 13.764 17.0729 14.4056 16.8318C15.5139 16.4019 16.3893 15.5256 16.8192 14.4183C17.0603 13.7766 17.1896 13.1001 17.2033 12.4135C17.2427 11.5317 17.2546 11.2521 17.2546 9.01267C17.2528 6.77417 17.2528 6.49001 17.2015 5.61276ZM8.99457 13.2183C6.6534 13.2183 4.75681 11.3218 4.75681 8.98059C4.75681 6.63942 6.6534 4.74284 8.99457 4.74284C11.3339 4.74284 13.2323 6.63942 13.2323 8.98059C13.2323 11.3218 11.3339 13.2183 8.99457 13.2183ZM13.401 5.57425C12.8537 5.57425 12.4128 5.13242 12.4128 4.58609C12.4128 4.03976 12.8537 3.59792 13.401 3.59792C13.9464 3.59792 14.3882 4.03976 14.3882 4.58609C14.3882 5.13242 13.9464 5.57425 13.401 5.57425Z" fill="#1D1D1D"/>
</svg>
