<svg width="24" height="18" viewBox="0 0 24 18" fill="none" xmlns="http://www.w3.org/2000/svg">
<path d="M23.1917 3.40343C22.9234 2.40243 22.1359 1.61259 21.1361 1.34309C19.3091 0.841427 11.9999 0.833261 11.9999 0.833261C11.9999 0.833261 4.6919 0.825094 2.86373 1.30459C1.88373 1.57176 1.07406 2.37909 0.803396 3.37893C0.321563 5.20593 0.316896 8.99526 0.316896 8.99526C0.316896 8.99526 0.31223 12.8033 0.790563 14.6116C1.0589 15.6114 1.8464 16.4013 2.8474 16.6708C4.69306 17.1724 11.9824 17.1806 11.9824 17.1806C11.9824 17.1806 19.2916 17.1888 21.1186 16.7104C22.1172 16.4421 22.9082 15.6534 23.1801 14.6536C23.6631 12.8278 23.6666 9.0396 23.6666 9.0396C23.6666 9.0396 23.6899 5.23043 23.1917 3.40343ZM9.6619 12.5058L9.66773 5.50576L15.7426 9.01159L9.6619 12.5058Z" fill="#B5B5C5"/>
</svg>
