<svg width="22" height="22" viewBox="0 0 22 22" fill="none" xmlns="http://www.w3.org/2000/svg">
<path d="M20.3333 0.5H1.66667C1.0215 0.5 0.5 1.02267 0.5 1.66667V20.3333C0.5 20.9773 1.0215 21.5 1.66667 21.5H11.7175V13.38H8.98983V10.2008H11.7175V7.8675C11.7175 5.155 13.3742 3.67683 15.8008 3.67683C16.6163 3.6745 17.433 3.7165 18.245 3.80167V6.625H16.5708C15.2548 6.625 14.9982 7.25267 14.9982 8.17083V10.195H18.1447L17.7363 13.3742H14.997V21.5H20.3333C20.9785 21.5 21.5 20.9773 21.5 20.3333V1.66667C21.5 1.02267 20.9785 0.5 20.3333 0.5Z" fill="#DDDDE3"/>
</svg>
