<svg width="22" height="22" viewBox="0 0 22 22" fill="none" xmlns="http://www.w3.org/2000/svg">
<path d="M21.4378 6.68912C21.4249 5.80595 21.2616 4.92978 20.9489 4.10378C20.4018 2.69328 19.2876 1.57795 17.8771 1.03195C17.0616 0.725117 16.1994 0.560617 15.3268 0.54195C14.2044 0.491783 13.8486 0.477783 10.9996 0.477783C8.15059 0.477783 7.78543 0.477783 6.67126 0.54195C5.79976 0.560617 4.93759 0.725117 4.12209 1.03195C2.71159 1.57795 1.59626 2.69328 1.05026 4.10378C0.743427 4.91928 0.57776 5.78145 0.561427 6.65295C0.51126 7.77645 0.496094 8.13228 0.496094 10.9813C0.496094 13.8303 0.496094 14.1943 0.561427 15.3096C0.578927 16.1823 0.743427 17.0433 1.05026 17.8611C1.59743 19.2705 2.71159 20.3858 4.12326 20.9318C4.93526 21.2491 5.79743 21.4288 6.67243 21.4568C7.79593 21.507 8.15176 21.5221 11.0008 21.5221C13.8498 21.5221 14.2149 21.5221 15.3291 21.4568C16.2006 21.4393 17.0628 21.2748 17.8794 20.968C19.2899 20.4208 20.4041 19.3055 20.9513 17.8961C21.2581 17.0795 21.4226 16.2185 21.4401 15.3446C21.4903 14.2223 21.5054 13.8665 21.5054 11.0163C21.5031 8.16728 21.5031 7.80562 21.4378 6.68912ZM10.9926 16.3689C8.01293 16.3689 5.59909 13.9551 5.59909 10.9755C5.59909 7.99578 8.01293 5.58195 10.9926 5.58195C13.9699 5.58195 16.3861 7.99578 16.3861 10.9755C16.3861 13.9551 13.9699 16.3689 10.9926 16.3689ZM16.6008 6.64012C15.9043 6.64012 15.3431 6.07778 15.3431 5.38245C15.3431 4.68712 15.9043 4.12478 16.6008 4.12478C17.2949 4.12478 17.8573 4.68712 17.8573 5.38245C17.8573 6.07778 17.2949 6.64012 16.6008 6.64012Z" fill="#DDDDE3"/>
<path d="M10.9928 14.4789C12.9277 14.4789 14.4963 12.9104 14.4963 10.9754C14.4963 9.04049 12.9277 7.47192 10.9928 7.47192C9.05783 7.47192 7.48926 9.04049 7.48926 10.9754C7.48926 12.9104 9.05783 14.4789 10.9928 14.4789Z" fill="#DDDDE3"/>
</svg>
