<svg width="28" height="22" viewBox="0 0 28 22" fill="none" xmlns="http://www.w3.org/2000/svg">
<path d="M27.125 2.98829C26.1403 3.41614 25.0985 3.69802 24.0324 3.82501C25.1528 3.16897 25.9953 2.12673 26.402 0.893759C25.3428 1.51315 24.1859 1.94774 22.9808 2.17892C22.4733 1.6471 21.863 1.22402 21.187 0.935401C20.511 0.646783 19.7833 0.498651 19.0482 0.500009C16.0721 0.500009 13.6637 2.87345 13.6637 5.79923C13.6616 6.20619 13.7082 6.61195 13.8026 7.00782C11.6685 6.90778 9.5788 6.36338 7.66718 5.40945C5.75555 4.45552 4.06409 3.11307 2.70102 1.46798C2.22281 2.27414 1.96992 3.19394 1.96875 4.13126C1.96875 5.96876 2.92742 7.59298 4.375 8.54454C3.51735 8.52419 2.67728 8.29719 1.92609 7.88282V7.94845C1.92609 10.5188 3.78547 12.657 6.24641 13.1438C5.78363 13.2671 5.30675 13.3296 4.82781 13.3297C4.48797 13.3303 4.14891 13.2973 3.81555 13.2313C4.49969 15.3367 6.49086 16.868 8.84953 16.9117C6.93294 18.3888 4.57987 19.1871 2.16016 19.1813C1.73065 19.1806 1.30154 19.1551 0.875 19.1047C3.33658 20.6765 6.19798 21.508 9.11859 21.5C19.0367 21.5 24.4552 13.4227 24.4552 6.4172C24.4552 6.18751 24.4491 5.95782 24.4382 5.7336C25.4899 4.98551 26.3997 4.05585 27.125 2.98829Z" fill="#B5B5C5"/>
</svg>
