<svg width="22" height="18" viewBox="0 0 22 18" fill="none" xmlns="http://www.w3.org/2000/svg">
<path d="M17.5193 7.625C17.3732 7.625 16.8838 7.6293 16.7459 7.63789L13.9572 7.71094C13.9427 7.71183 13.9283 7.70868 13.9154 7.70186C13.9026 7.69503 13.892 7.68479 13.8846 7.67227L8.31671 0.902969C8.28294 0.858263 8.23986 0.82143 8.19045 0.795017C8.14103 0.768605 8.08647 0.753245 8.03054 0.75H6.87511L10.0118 7.66797C10.0193 7.6838 10.0225 7.70131 10.0212 7.71878C10.0199 7.73624 10.014 7.75306 10.0042 7.76758C9.99444 7.7821 9.98104 7.79382 9.96535 7.80159C9.94965 7.80936 9.9322 7.81292 9.91472 7.81191L4.68585 7.88926C4.63144 7.89091 4.5774 7.8797 4.52813 7.85656C4.47886 7.83342 4.43573 7.79898 4.40226 7.75605L2.81241 5.82246C2.68351 5.65488 2.44202 5.56465 2.23191 5.56465H1.42152C1.36609 5.56465 1.37425 5.61664 1.38929 5.66906L2.24179 8.73789C2.30623 8.90224 2.30623 9.08487 2.24179 9.24922L1.38843 12.3086C1.36308 12.3924 1.36609 12.4375 1.46449 12.4375H2.23449C2.58425 12.4375 2.63195 12.392 2.8107 12.1668L4.43062 10.2031C4.46439 10.1605 4.50757 10.1263 4.55677 10.1032C4.60598 10.0801 4.65986 10.0687 4.71421 10.0699L9.89968 10.1859C9.91856 10.1864 9.93705 10.1914 9.95354 10.2006C9.97004 10.2098 9.98404 10.2229 9.99433 10.2387C10.0046 10.2545 10.0109 10.2727 10.0126 10.2915C10.0143 10.3103 10.0114 10.3292 10.0041 10.3466L6.87511 17.25H8.0198C8.07562 17.2467 8.13008 17.2314 8.17941 17.2051C8.22874 17.1788 8.27177 17.142 8.30554 17.0975L13.885 10.332C13.9018 10.3062 13.971 10.2934 14.0006 10.2934L16.7463 10.3664C16.8881 10.375 17.3732 10.3793 17.5198 10.3793C19.422 10.3793 20.6251 9.85637 20.6251 9C20.6251 8.14363 19.4271 7.625 17.5193 7.625Z" stroke="#1D1D1D" stroke-linecap="round" stroke-linejoin="round"/>
</svg>
