<svg width="20" height="22" viewBox="0 0 20 22" fill="none" xmlns="http://www.w3.org/2000/svg">
<path d="M6.5625 17.875V20.625M2.4375 1.375H10.6875C11.0522 1.375 11.4019 1.51987 11.6598 1.77773C11.9176 2.03559 12.0625 2.38533 12.0625 2.75V20.4531C12.0625 20.4987 12.0444 20.5424 12.0122 20.5747C11.9799 20.6069 11.9362 20.625 11.8906 20.625H1.0625V2.75C1.0625 2.38533 1.20737 2.03559 1.46523 1.77773C1.72309 1.51987 2.07283 1.375 2.4375 1.375V1.375ZM12.75 8.25H17.5625C17.9272 8.25 18.2769 8.39487 18.5348 8.65273C18.7926 8.91059 18.9375 9.26033 18.9375 9.625V20.625H12.0625V8.9375C12.0625 8.75516 12.1349 8.5803 12.2639 8.45136C12.3928 8.32243 12.5677 8.25 12.75 8.25Z" stroke="#1D1D1D" stroke-linecap="round" stroke-linejoin="round"/>
<path d="M3.2144 18.5569C3.07201 18.5756 2.92737 18.5491 2.80077 18.4814C2.67417 18.4136 2.57197 18.3079 2.50852 18.1791C2.44506 18.0502 2.42353 17.9048 2.44695 17.7631C2.47037 17.6214 2.53757 17.4906 2.63911 17.3891C2.74065 17.2876 2.87143 17.2204 3.01311 17.197C3.15479 17.1735 3.30024 17.1951 3.42906 17.2585C3.55787 17.322 3.66359 17.4242 3.73136 17.5508C3.79913 17.6774 3.82556 17.822 3.80694 17.9644C3.78729 18.1147 3.71854 18.2542 3.61138 18.3614C3.50422 18.4685 3.36466 18.5373 3.2144 18.5569V18.5569ZM3.2144 15.1194C3.07201 15.1381 2.92737 15.1116 2.80077 15.0439C2.67417 14.9761 2.57197 14.8704 2.50852 14.7416C2.44506 14.6127 2.42353 14.4673 2.44695 14.3256C2.47037 14.1839 2.53757 14.0531 2.63911 13.9516C2.74065 13.8501 2.87143 13.7829 3.01311 13.7595C3.15479 13.736 3.30024 13.7576 3.42906 13.821C3.55787 13.8845 3.66359 13.9867 3.73136 14.1133C3.79913 14.2399 3.82556 14.3845 3.80694 14.5269C3.78729 14.6772 3.71854 14.8167 3.61138 14.9239C3.50422 15.031 3.36466 15.0998 3.2144 15.1194V15.1194ZM3.2144 11.6819C3.07201 11.7006 2.92737 11.6741 2.80077 11.6064C2.67417 11.5386 2.57197 11.4329 2.50852 11.3041C2.44506 11.1752 2.42353 11.0298 2.44695 10.8881C2.47037 10.7464 2.53757 10.6156 2.63911 10.5141C2.74065 10.4126 2.87143 10.3454 3.01311 10.322C3.15479 10.2985 3.30024 10.3201 3.42906 10.3835C3.55787 10.447 3.66359 10.5492 3.73136 10.6758C3.79913 10.8024 3.82556 10.947 3.80694 11.0894C3.78729 11.2397 3.71854 11.3792 3.61138 11.4864C3.50422 11.5935 3.36466 11.6623 3.2144 11.6819V11.6819ZM3.2144 8.24444C3.07201 8.26306 2.92737 8.23663 2.80077 8.16886C2.67417 8.10109 2.57197 7.99537 2.50852 7.86656C2.44506 7.73774 2.42353 7.59229 2.44695 7.45061C2.47037 7.30893 2.53757 7.17815 2.63911 7.07661C2.74065 6.97507 2.87143 6.90787 3.01311 6.88445C3.15479 6.86103 3.30024 6.88256 3.42906 6.94602C3.55787 7.00947 3.66359 7.11167 3.73136 7.23827C3.79913 7.36487 3.82556 7.50951 3.80694 7.6519C3.78729 7.80216 3.71854 7.94172 3.61138 8.04888C3.50422 8.15604 3.36466 8.22479 3.2144 8.24444V8.24444ZM3.2144 4.80694C3.07201 4.82556 2.92737 4.79913 2.80077 4.73136C2.67417 4.66359 2.57197 4.55787 2.50852 4.42906C2.44506 4.30024 2.42353 4.15479 2.44695 4.01311C2.47037 3.87143 2.53757 3.74065 2.63911 3.63911C2.74065 3.53757 2.87143 3.47037 3.01311 3.44695C3.15479 3.42353 3.30024 3.44506 3.42906 3.50852C3.55787 3.57197 3.66359 3.67417 3.73136 3.80077C3.79913 3.92737 3.82556 4.07201 3.80694 4.2144C3.78729 4.36466 3.71854 4.50422 3.61138 4.61138C3.50422 4.71854 3.36466 4.78729 3.2144 4.80694V4.80694ZM6.6519 15.1194C6.50951 15.1381 6.36487 15.1116 6.23827 15.0439C6.11167 14.9761 6.00947 14.8704 5.94602 14.7416C5.88256 14.6127 5.86103 14.4673 5.88445 14.3256C5.90787 14.1839 5.97507 14.0531 6.07661 13.9516C6.17815 13.8501 6.30893 13.7829 6.45061 13.7595C6.59229 13.736 6.73774 13.7576 6.86656 13.821C6.99537 13.8845 7.10109 13.9867 7.16886 14.1133C7.23663 14.2399 7.26306 14.3845 7.24444 14.5269C7.22479 14.6772 7.15604 14.8167 7.04888 14.9239C6.94172 15.031 6.80216 15.0998 6.6519 15.1194V15.1194ZM6.6519 11.6819C6.50951 11.7006 6.36487 11.6741 6.23827 11.6064C6.11167 11.5386 6.00947 11.4329 5.94602 11.3041C5.88256 11.1752 5.86103 11.0298 5.88445 10.8881C5.90787 10.7464 5.97507 10.6156 6.07661 10.5141C6.17815 10.4126 6.30893 10.3454 6.45061 10.322C6.59229 10.2985 6.73774 10.3201 6.86656 10.3835C6.99537 10.447 7.10109 10.5492 7.16886 10.6758C7.23663 10.8024 7.26306 10.947 7.24444 11.0894C7.22479 11.2397 7.15604 11.3792 7.04888 11.4864C6.94172 11.5935 6.80216 11.6623 6.6519 11.6819V11.6819ZM6.6519 8.24444C6.50951 8.26306 6.36487 8.23663 6.23827 8.16886C6.11167 8.10109 6.00947 7.99537 5.94602 7.86656C5.88256 7.73774 5.86103 7.59229 5.88445 7.45061C5.90787 7.30893 5.97507 7.17815 6.07661 7.07661C6.17815 6.97507 6.30893 6.90787 6.45061 6.88445C6.59229 6.86103 6.73774 6.88256 6.86656 6.94602C6.99537 7.00947 7.10109 7.11167 7.16886 7.23827C7.23663 7.36487 7.26306 7.50951 7.24444 7.6519C7.22479 7.80216 7.15604 7.94172 7.04888 8.04888C6.94172 8.15604 6.80216 8.22479 6.6519 8.24444V8.24444ZM6.6519 4.80694C6.50951 4.82556 6.36487 4.79913 6.23827 4.73136C6.11167 4.66359 6.00947 4.55787 5.94602 4.42906C5.88256 4.30024 5.86103 4.15479 5.88445 4.01311C5.90787 3.87143 5.97507 3.74065 6.07661 3.63911C6.17815 3.53757 6.30893 3.47037 6.45061 3.44695C6.59229 3.42353 6.73774 3.44506 6.86656 3.50852C6.99537 3.57197 7.10109 3.67417 7.16886 3.80077C7.23663 3.92737 7.26306 4.07201 7.24444 4.2144C7.22479 4.36466 7.15604 4.50422 7.04888 4.61138C6.94172 4.71854 6.80216 4.78729 6.6519 4.80694V4.80694ZM10.0894 18.5569C9.94701 18.5756 9.80237 18.5491 9.67577 18.4814C9.54917 18.4136 9.44697 18.3079 9.38352 18.1791C9.32006 18.0502 9.29853 17.9048 9.32195 17.7631C9.34537 17.6214 9.41257 17.4906 9.51411 17.3891C9.61565 17.2876 9.74643 17.2204 9.88811 17.197C10.0298 17.1735 10.1752 17.1951 10.3041 17.2585C10.4329 17.322 10.5386 17.4242 10.6064 17.5508C10.6741 17.6774 10.7006 17.822 10.6819 17.9644C10.6623 18.1147 10.5935 18.2542 10.4864 18.3614C10.3792 18.4685 10.2397 18.5373 10.0894 18.5569V18.5569ZM10.0894 15.1194C9.94701 15.1381 9.80237 15.1116 9.67577 15.0439C9.54917 14.9761 9.44697 14.8704 9.38352 14.7416C9.32006 14.6127 9.29853 14.4673 9.32195 14.3256C9.34537 14.1839 9.41257 14.0531 9.51411 13.9516C9.61565 13.8501 9.74643 13.7829 9.88811 13.7595C10.0298 13.736 10.1752 13.7576 10.3041 13.821C10.4329 13.8845 10.5386 13.9867 10.6064 14.1133C10.6741 14.2399 10.7006 14.3845 10.6819 14.5269C10.6623 14.6772 10.5935 14.8167 10.4864 14.9239C10.3792 15.031 10.2397 15.0998 10.0894 15.1194V15.1194ZM10.0894 11.6819C9.94701 11.7006 9.80237 11.6741 9.67577 11.6064C9.54917 11.5386 9.44697 11.4329 9.38352 11.3041C9.32006 11.1752 9.29853 11.0298 9.32195 10.8881C9.34537 10.7464 9.41257 10.6156 9.51411 10.5141C9.61565 10.4126 9.74643 10.3454 9.88811 10.322C10.0298 10.2985 10.1752 10.3201 10.3041 10.3835C10.4329 10.447 10.5386 10.5492 10.6064 10.6758C10.6741 10.8024 10.7006 10.947 10.6819 11.0894C10.6623 11.2397 10.5935 11.3792 10.4864 11.4864C10.3792 11.5935 10.2397 11.6623 10.0894 11.6819V11.6819Z" fill="#1D1D1D"/>
<path d="M10.487 8.04917C10.7547 7.78152 10.7536 7.34649 10.4846 7.07751C10.2156 6.80852 9.78058 6.80743 9.51294 7.07508C9.24529 7.34272 9.24638 7.77775 9.51537 8.04674C9.78436 8.31573 10.2194 8.31682 10.487 8.04917Z" fill="#1D1D1D"/>
<path d="M10.0894 4.80694C9.94701 4.82556 9.80237 4.79913 9.67577 4.73136C9.54917 4.66359 9.44697 4.55787 9.38352 4.42906C9.32006 4.30024 9.29853 4.15479 9.32195 4.01311C9.34537 3.87143 9.41257 3.74065 9.51411 3.63911C9.61565 3.53757 9.74643 3.47037 9.88811 3.44695C10.0298 3.42353 10.1752 3.44506 10.3041 3.50852C10.4329 3.57197 10.5386 3.67417 10.6064 3.80077C10.6741 3.92737 10.7006 4.07201 10.6819 4.2144C10.6623 4.36466 10.5935 4.50422 10.4864 4.61138C10.3792 4.71854 10.2397 4.78729 10.0894 4.80694V4.80694ZM16.1875 17.1875C16.0515 17.1875 15.9186 17.2278 15.8056 17.3034C15.6925 17.3789 15.6044 17.4863 15.5524 17.6119C15.5003 17.7376 15.4867 17.8758 15.5132 18.0092C15.5398 18.1425 15.6052 18.265 15.7014 18.3612C15.7975 18.4573 15.92 18.5228 16.0534 18.5493C16.1868 18.5758 16.325 18.5622 16.4506 18.5102C16.5762 18.4582 16.6836 18.37 16.7592 18.257C16.8347 18.1439 16.875 18.011 16.875 17.875C16.875 17.6927 16.8026 17.5178 16.6737 17.3889C16.5447 17.26 16.3699 17.1875 16.1875 17.1875ZM16.1875 13.75C16.0515 13.75 15.9186 13.7903 15.8056 13.8659C15.6925 13.9414 15.6044 14.0488 15.5524 14.1744C15.5003 14.3001 15.4867 14.4383 15.5132 14.5717C15.5398 14.705 15.6052 14.8275 15.7014 14.9237C15.7975 15.0198 15.92 15.0853 16.0534 15.1118C16.1868 15.1383 16.325 15.1247 16.4506 15.0727C16.5762 15.0207 16.6836 14.9325 16.7592 14.8195C16.8347 14.7064 16.875 14.5735 16.875 14.4375C16.875 14.2552 16.8026 14.0803 16.6737 13.9514C16.5447 13.8225 16.3699 13.75 16.1875 13.75ZM16.1875 10.3125C16.0515 10.3125 15.9186 10.3528 15.8056 10.4284C15.6925 10.5039 15.6044 10.6113 15.5524 10.7369C15.5003 10.8626 15.4867 11.0008 15.5132 11.1342C15.5398 11.2675 15.6052 11.39 15.7014 11.4862C15.7975 11.5823 15.92 11.6478 16.0534 11.6743C16.1868 11.7008 16.325 11.6872 16.4506 11.6352C16.5762 11.5832 16.6836 11.495 16.7592 11.382C16.8347 11.2689 16.875 11.136 16.875 11C16.875 10.8177 16.8026 10.6428 16.6737 10.5139C16.5447 10.385 16.3699 10.3125 16.1875 10.3125ZM13.4375 17.1875C13.3016 17.1875 13.1686 17.2278 13.0556 17.3034C12.9425 17.3789 12.8544 17.4863 12.8024 17.6119C12.7503 17.7376 12.7367 17.8758 12.7632 18.0092C12.7898 18.1425 12.8552 18.265 12.9514 18.3612C13.0475 18.4573 13.17 18.5228 13.3034 18.5493C13.4368 18.5758 13.575 18.5622 13.7006 18.5102C13.8262 18.4582 13.9336 18.37 14.0092 18.257C14.0847 18.1439 14.125 18.011 14.125 17.875C14.125 17.6927 14.0526 17.5178 13.9237 17.3889C13.7947 17.26 13.6199 17.1875 13.4375 17.1875ZM13.4375 13.75C13.3016 13.75 13.1686 13.7903 13.0556 13.8659C12.9425 13.9414 12.8544 14.0488 12.8024 14.1744C12.7503 14.3001 12.7367 14.4383 12.7632 14.5717C12.7898 14.705 12.8552 14.8275 12.9514 14.9237C13.0475 15.0198 13.17 15.0853 13.3034 15.1118C13.4368 15.1383 13.575 15.1247 13.7006 15.0727C13.8262 15.0207 13.9336 14.9325 14.0092 14.8195C14.0847 14.7064 14.125 14.5735 14.125 14.4375C14.125 14.2552 14.0526 14.0803 13.9237 13.9514C13.7947 13.8225 13.6199 13.75 13.4375 13.75ZM13.4375 10.3125C13.3016 10.3125 13.1686 10.3528 13.0556 10.4284C12.9425 10.5039 12.8544 10.6113 12.8024 10.7369C12.7503 10.8626 12.7367 11.0008 12.7632 11.1342C12.7898 11.2675 12.8552 11.39 12.9514 11.4862C13.0475 11.5823 13.17 11.6478 13.3034 11.6743C13.4368 11.7008 13.575 11.6872 13.7006 11.6352C13.8262 11.5832 13.9336 11.495 14.0092 11.382C14.0847 11.2689 14.125 11.136 14.125 11C14.125 10.8177 14.0526 10.6428 13.9237 10.5139C13.7947 10.385 13.6199 10.3125 13.4375 10.3125Z" fill="#1D1D1D"/>
</svg>
