<svg width="18" height="18" viewBox="0 0 18 18" fill="none" xmlns="http://www.w3.org/2000/svg">
<path d="M12.4375 17.25H14.8438C15.4819 17.25 16.094 16.9965 16.5452 16.5452C16.9965 16.094 17.25 15.4819 17.25 14.8438V12.4375M17.25 5.5625V3.15625C17.25 2.51807 16.9965 1.90603 16.5452 1.45477C16.094 1.00352 15.4819 0.75 14.8438 0.75H12.4375M5.5625 17.25H3.15625C2.51807 17.25 1.90603 16.9965 1.45477 16.5452C1.00352 16.094 0.75 15.4819 0.75 14.8438V12.4375M0.75 5.5625V3.15625C0.75 2.51807 1.00352 1.90603 1.45477 1.45477C1.90603 1.00352 2.51807 0.75 3.15625 0.75H5.5625" stroke="#1D1D1D" stroke-linecap="round" stroke-linejoin="round"/>
</svg>
