<svg width="18" height="18" viewBox="0 0 18 18" fill="none" xmlns="http://www.w3.org/2000/svg">
<path d="M6.96875 0.875H1.65625C1.22478 0.875 0.875 1.22478 0.875 1.65625V6.96875C0.875 7.40022 1.22478 7.75 1.65625 7.75H6.96875C7.40022 7.75 7.75 7.40022 7.75 6.96875V1.65625C7.75 1.22478 7.40022 0.875 6.96875 0.875Z" stroke="#1D1D1D" stroke-linecap="round" stroke-linejoin="round"/>
<path d="M16.3438 0.875H11.0312C10.5998 0.875 10.25 1.22478 10.25 1.65625V6.96875C10.25 7.40022 10.5998 7.75 11.0312 7.75H16.3438C16.7752 7.75 17.125 7.40022 17.125 6.96875V1.65625C17.125 1.22478 16.7752 0.875 16.3438 0.875Z" stroke="#1D1D1D" stroke-linecap="round" stroke-linejoin="round"/>
<path d="M6.96875 10.25H1.65625C1.22478 10.25 0.875 10.5998 0.875 11.0312V16.3438C0.875 16.7752 1.22478 17.125 1.65625 17.125H6.96875C7.40022 17.125 7.75 16.7752 7.75 16.3438V11.0312C7.75 10.5998 7.40022 10.25 6.96875 10.25Z" stroke="#1D1D1D" stroke-linecap="round" stroke-linejoin="round"/>
<path d="M16.3438 10.25H11.0312C10.5998 10.25 10.25 10.5998 10.25 11.0312V16.3438C10.25 16.7752 10.5998 17.125 11.0312 17.125H16.3438C16.7752 17.125 17.125 16.7752 17.125 16.3438V11.0312C17.125 10.5998 16.7752 10.25 16.3438 10.25Z" stroke="#1D1D1D" stroke-linecap="round" stroke-linejoin="round"/>
</svg>
