<svg width="18" height="16" viewBox="0 0 18 16" fill="none" xmlns="http://www.w3.org/2000/svg">
<path d="M0.75 3.1178C2.05263 3.1178 2.05263 1.12505 3.57237 1.12505C4.875 1.12505 4.875 3.1178 6.39474 3.1178C7.69737 3.1178 7.69737 1.12505 9.21711 1.12505C10.5197 1.12505 10.5197 3.1178 12.0395 3.1178C13.3421 3.1178 13.3421 1.12505 14.8618 1.12505C16.3816 1.12505 15.9474 3.1178 17.25 3.1178" stroke="#1D1D1D" stroke-miterlimit="10" stroke-linecap="round"/>
<path d="M0.75 8.99646C2.05263 8.99646 2.05263 7.00372 3.57237 7.00372C4.875 7.00372 4.875 8.99646 6.39474 8.99646C7.69737 8.99646 7.69737 7.00372 9.21711 7.00372C10.5197 7.00372 10.5197 8.99646 12.0395 8.99646C13.3421 8.99646 13.3421 7.00372 14.8618 7.00372C16.3816 7.00372 15.9474 8.99646 17.25 8.99646" stroke="#1D1D1D" stroke-miterlimit="10" stroke-linecap="round"/>
<path d="M0.75 14.8751C2.05263 14.8751 2.05263 12.8824 3.57237 12.8824C4.875 12.8824 4.875 14.8751 6.39474 14.8751C7.69737 14.8751 7.69737 12.8824 9.21711 12.8824C10.5197 12.8824 10.5197 14.8751 12.0395 14.8751C13.3421 14.8751 13.3421 12.8824 14.8618 12.8824C16.3816 12.8824 15.9474 14.8751 17.25 14.8751" stroke="#1D1D1D" stroke-miterlimit="10" stroke-linecap="round"/>
</svg>
