<svg width="18" height="14" viewBox="0 0 18 14" fill="none" xmlns="http://www.w3.org/2000/svg">
<path d="M16.0312 0.75H1.96875C1.36469 0.75 0.875 1.23969 0.875 1.84375V12.1562C0.875 12.7603 1.36469 13.25 1.96875 13.25H16.0312C16.6353 13.25 17.125 12.7603 17.125 12.1562V1.84375C17.125 1.23969 16.6353 0.75 16.0312 0.75Z" stroke="#1D1D1D" stroke-linejoin="round"/>
<path d="M16.0312 10.125H15.0938C14.4897 10.125 14 10.6147 14 11.2188V12.1562C14 12.7603 14.4897 13.25 15.0938 13.25H16.0312C16.6353 13.25 17.125 12.7603 17.125 12.1562V11.2188C17.125 10.6147 16.6353 10.125 16.0312 10.125Z" stroke="#1D1D1D" stroke-linejoin="round"/>
<path d="M16.0312 7H15.0938C14.4897 7 14 7.48969 14 8.09375V9.03125C14 9.63531 14.4897 10.125 15.0938 10.125H16.0312C16.6353 10.125 17.125 9.63531 17.125 9.03125V8.09375C17.125 7.48969 16.6353 7 16.0312 7Z" stroke="#1D1D1D" stroke-linejoin="round"/>
<path d="M16.0312 3.875H15.0938C14.4897 3.875 14 4.36469 14 4.96875V5.90625C14 6.51031 14.4897 7 15.0938 7H16.0312C16.6353 7 17.125 6.51031 17.125 5.90625V4.96875C17.125 4.36469 16.6353 3.875 16.0312 3.875Z" stroke="#1D1D1D" stroke-linejoin="round"/>
<path d="M16.0312 0.75H15.0938C14.4897 0.75 14 1.23969 14 1.84375V2.78125C14 3.38531 14.4897 3.875 15.0938 3.875H16.0312C16.6353 3.875 17.125 3.38531 17.125 2.78125V1.84375C17.125 1.23969 16.6353 0.75 16.0312 0.75Z" stroke="#1D1D1D" stroke-linejoin="round"/>
<path d="M2.90625 10.125H1.96875C1.36469 10.125 0.875 10.6147 0.875 11.2188V12.1562C0.875 12.7603 1.36469 13.25 1.96875 13.25H2.90625C3.51031 13.25 4 12.7603 4 12.1562V11.2188C4 10.6147 3.51031 10.125 2.90625 10.125Z" stroke="#1D1D1D" stroke-linejoin="round"/>
<path d="M2.90625 7H1.96875C1.36469 7 0.875 7.48969 0.875 8.09375V9.03125C0.875 9.63531 1.36469 10.125 1.96875 10.125H2.90625C3.51031 10.125 4 9.63531 4 9.03125V8.09375C4 7.48969 3.51031 7 2.90625 7Z" stroke="#1D1D1D" stroke-linejoin="round"/>
<path d="M2.90625 3.875H1.96875C1.36469 3.875 0.875 4.36469 0.875 4.96875V5.90625C0.875 6.51031 1.36469 7 1.96875 7H2.90625C3.51031 7 4 6.51031 4 5.90625V4.96875C4 4.36469 3.51031 3.875 2.90625 3.875Z" stroke="#1D1D1D" stroke-linejoin="round"/>
<path d="M2.90625 0.75H1.96875C1.36469 0.75 0.875 1.23969 0.875 1.84375V2.78125C0.875 3.38531 1.36469 3.875 1.96875 3.875H2.90625C3.51031 3.875 4 3.38531 4 2.78125V1.84375C4 1.23969 3.51031 0.75 2.90625 0.75Z" stroke="#1D1D1D" stroke-linejoin="round"/>
<path d="M12.9062 0.75H5.09375C4.48969 0.75 4 1.23969 4 1.84375V5.90625C4 6.51031 4.48969 7 5.09375 7H12.9062C13.5103 7 14 6.51031 14 5.90625V1.84375C14 1.23969 13.5103 0.75 12.9062 0.75Z" stroke="#1D1D1D" stroke-linejoin="round"/>
<path d="M12.9062 7H5.09375C4.48969 7 4 7.48969 4 8.09375V12.1562C4 12.7603 4.48969 13.25 5.09375 13.25H12.9062C13.5103 13.25 14 12.7603 14 12.1562V8.09375C14 7.48969 13.5103 7 12.9062 7Z" stroke="#1D1D1D" stroke-linejoin="round"/>
</svg>
