<svg width="20" height="16" viewBox="0 0 20 16" fill="none" xmlns="http://www.w3.org/2000/svg">
<path d="M1.0625 14.875V10.0625C1.06465 9.33382 1.35508 8.63559 1.87034 8.12034C2.38559 7.60508 3.08382 7.31465 3.8125 7.3125H16.1875C16.9162 7.31465 17.6144 7.60508 18.1297 8.12034C18.6449 8.63559 18.9353 9.33382 18.9375 10.0625V14.875M15.5 7.3125H3.125V2.84375C3.12636 2.38833 3.30788 1.95195 3.62991 1.62991C3.95195 1.30788 4.38833 1.12636 4.84375 1.125H15.1562C15.6117 1.12636 16.0481 1.30788 16.3701 1.62991C16.6921 1.95195 16.8736 2.38833 16.875 2.84375V7.3125H15.5Z" stroke="#1D1D1D" stroke-linecap="round" stroke-linejoin="round"/>
<path d="M1.0625 14.875V14.5312C1.06329 14.258 1.1722 13.9961 1.36542 13.8029C1.55865 13.6097 1.82049 13.5008 2.09375 13.5H17.9062C18.1795 13.5008 18.4414 13.6097 18.6346 13.8029C18.8278 13.9961 18.9367 14.258 18.9375 14.5312V14.875M3.8125 7.3125V6.625C3.81352 6.26064 3.95871 5.9115 4.21636 5.65386C4.474 5.39621 4.82314 5.25102 5.1875 5.25H8.625C8.98936 5.25102 9.3385 5.39621 9.59614 5.65386C9.85379 5.9115 9.99898 6.26064 10 6.625M10 6.625V7.3125M10 6.625C10.001 6.26064 10.1462 5.9115 10.4039 5.65386C10.6615 5.39621 11.0106 5.25102 11.375 5.25H14.8125C15.1769 5.25102 15.526 5.39621 15.7836 5.65386C16.0413 5.9115 16.1865 6.26064 16.1875 6.625V7.3125" stroke="#1D1D1D" stroke-linecap="round" stroke-linejoin="round"/>
</svg>
