<svg width="19" height="12" viewBox="0 0 19 12" fill="none" xmlns="http://www.w3.org/2000/svg">
<path d="M14.3902 8.06191L17.6211 10.3361C17.7163 10.3784 17.8205 10.3963 17.9243 10.3881C18.0281 10.3799 18.1282 10.3458 18.2155 10.2891C18.3029 10.2324 18.3746 10.1547 18.4243 10.0632C18.474 9.97166 18.5 9.86917 18.5 9.76503V2.23534C18.5 2.13121 18.474 2.02872 18.4243 1.9372C18.3746 1.84567 18.3029 1.76801 18.2155 1.71127C18.1282 1.65453 18.0281 1.62051 17.9243 1.6123C17.8205 1.60409 17.7163 1.62194 17.6211 1.66425L14.3902 3.93847C14.3083 3.99614 14.2414 4.07266 14.1953 4.16158C14.1491 4.2505 14.125 4.34922 14.125 4.44941V7.55097C14.125 7.65116 14.1491 7.74987 14.1953 7.83879C14.2414 7.92771 14.3083 8.00424 14.3902 8.06191V8.06191Z" stroke="#1D1D1D" stroke-linecap="round" stroke-linejoin="round"/>
<path d="M10.2188 11H3.03125C2.493 10.9985 1.97725 10.784 1.59665 10.4034C1.21605 10.0228 1.00155 9.507 1 8.96875V3.03125C1.00155 2.493 1.21605 1.97725 1.59665 1.59665C1.97725 1.21605 2.493 1.00155 3.03125 1H10.2375C10.7707 1.00165 11.2817 1.21421 11.6587 1.59127C12.0358 1.96833 12.2484 2.47926 12.25 3.0125V8.96875C12.2485 9.507 12.034 10.0228 11.6534 10.4034C11.2728 10.784 10.757 10.9985 10.2188 11Z" stroke="#1D1D1D" stroke-miterlimit="10"/>
</svg>
