<svg width="18" height="20" viewBox="0 0 18 20" fill="none" xmlns="http://www.w3.org/2000/svg">
<path d="M16.377 14.1005C15.2735 12.75 14.4945 12.0625 14.4945 8.33926C14.4945 4.92969 12.7534 3.71496 11.3204 3.125C11.1301 3.0468 10.9509 2.86719 10.8929 2.67168C10.6415 1.81617 9.93681 1.0625 9.00009 1.0625C8.06337 1.0625 7.35825 1.8166 7.10946 2.67254C7.05146 2.8702 6.87228 3.0468 6.68193 3.125C5.2472 3.71582 3.50782 4.92625 3.50782 8.33926C3.50568 12.0625 2.72665 12.75 1.62322 14.1005C1.16603 14.66 1.5665 15.5 2.36614 15.5H15.6383C16.4337 15.5 16.8316 14.6574 16.377 14.1005Z" stroke="#58587E" stroke-width="1.5" stroke-linecap="round" stroke-linejoin="round"/>
<path d="M11.75 15.5V16.1875C11.75 16.9168 11.4603 17.6163 10.9445 18.132C10.4288 18.6478 9.72935 18.9375 9 18.9375C8.27065 18.9375 7.57118 18.6478 7.05546 18.132C6.53973 17.6163 6.25 16.9168 6.25 16.1875V15.5" stroke="#58587E" stroke-width="1.5" stroke-linecap="round" stroke-linejoin="round"/>
</svg>
