<svg width="22" height="22" viewBox="0 0 22 22" fill="none" xmlns="http://www.w3.org/2000/svg">
<path d="M20.1409 16.5317C19.3965 15.7817 17.5937 14.6871 16.719 14.2461C15.58 13.6723 15.4862 13.6254 14.5909 14.2906C13.9937 14.7345 13.5967 15.1311 12.8978 14.982C12.1989 14.8329 10.6801 13.9925 9.35027 12.6668C8.02042 11.3412 7.13121 9.7784 6.98167 9.08184C6.83214 8.38527 7.23527 7.99293 7.67496 7.39434C8.29464 6.55058 8.24777 6.40996 7.71808 5.2709C7.30511 4.38496 6.17871 2.59902 5.42589 1.8584C4.62058 1.06293 4.62058 1.20355 4.10167 1.41918C3.67922 1.59692 3.27394 1.81298 2.89089 2.06465C2.14089 2.56293 1.72464 2.97683 1.43355 3.59887C1.14246 4.2209 1.01167 5.67918 2.51496 8.41012C4.01824 11.1411 5.07292 12.5375 7.25589 14.7143C9.43886 16.8912 11.1175 18.0617 13.5714 19.4379C16.607 21.1381 17.7714 20.8067 18.3953 20.5161C19.0192 20.2254 19.435 19.8129 19.9342 19.0629C20.1865 18.6805 20.403 18.2757 20.5811 17.8536C20.7971 17.3365 20.9378 17.3365 20.1409 16.5317Z" stroke="#1D1D1D" stroke-width="1.5" stroke-miterlimit="10"/>
</svg>
