<svg width="10" height="10" viewBox="0 0 10 10" fill="none" xmlns="http://www.w3.org/2000/svg">
<path d="M8.75063 4.79666C8.63893 4.79666 8.54838 4.88765 8.54838 5.00001V8.50371C8.54772 8.55289 8.50833 8.59253 8.45943 8.59319H1.49195C1.44334 8.59253 1.40441 8.55261 1.40441 8.50371V1.49486C1.40441 1.44625 1.44362 1.40681 1.49195 1.40681H4.97642C5.08812 1.40681 5.17857 1.31572 5.17857 1.20336C5.17857 1.09109 5.08812 1 4.97642 1H1.49195C1.36135 0.999624 1.23601 1.05164 1.14368 1.14453C1.05134 1.23741 0.999627 1.36349 1 1.49487V8.50372C0.999626 8.63519 1.05134 8.76147 1.14358 8.85462C1.23591 8.9477 1.36125 9 1.49195 9H8.45943C8.59032 9 8.71574 8.94769 8.80827 8.85462C8.90079 8.76155 8.95278 8.63538 8.95278 8.50372V5.00002C8.95203 4.88804 8.86196 4.79733 8.75063 4.79667L8.75063 4.79666Z" fill="#297AD8" stroke="#297AD8" stroke-width="0.5"/>
<path d="M8.99992 1.16494C8.99971 1.14596 8.99601 1.12712 8.98889 1.10955C8.981 1.0912 8.96976 1.07447 8.95587 1.06013C8.92773 1.03124 8.88899 1.01521 8.84877 1.01578L7.00025 1.02688H7.00032C6.91739 1.02688 6.85016 1.09457 6.85016 1.17808C6.85016 1.26152 6.91739 1.32921 7.00032 1.32921L8.48455 1.32014L6.37671 3.44029C6.31877 3.49955 6.31877 3.59465 6.37671 3.65391C6.40505 3.68202 6.4431 3.69791 6.48283 3.69826C6.52262 3.69833 6.56088 3.68238 6.58894 3.65391L8.69768 1.53178L8.68867 3.0252V3.02513C8.68735 3.06583 8.70243 3.10534 8.73056 3.13458C8.7587 3.16389 8.79737 3.18041 8.83787 3.18034C8.92011 3.17978 8.98685 3.11307 8.98796 3.03019L8.99992 1.16494Z" fill="#297AD8" stroke="#297AD8" stroke-width="0.5"/>
</svg>
