<svg width="16" height="20" viewBox="0 0 16 20" fill="none" xmlns="http://www.w3.org/2000/svg">
<path d="M6.125 2.5H8.73242C9.06383 2.50005 9.38165 2.6317 9.61602 2.86602L15.134 8.38398C15.3683 8.61835 15.4999 8.93617 15.5 9.26758V16.875C15.5 17.3723 15.3025 17.8492 14.9508 18.2008C14.5992 18.5525 14.1223 18.75 13.625 18.75H5.5C5.00272 18.75 4.52581 18.5525 4.17417 18.2008C3.82254 17.8492 3.625 17.3723 3.625 16.875V11.875" stroke="#0060B8" stroke-linecap="round" stroke-linejoin="round"/>
<path d="M9.25 2.8125V7.5C9.25 7.83152 9.3817 8.14946 9.61612 8.38388C9.85054 8.6183 10.1685 8.75 10.5 8.75H15.1875" stroke="#0060B8" stroke-linecap="round" stroke-linejoin="round"/>
<path d="M4.25 3.125V9.0625C4.25163 9.18607 4.22849 9.3087 4.18195 9.42318C4.13542 9.53766 4.06642 9.64166 3.97904 9.72904C3.89166 9.81642 3.78766 9.88542 3.67318 9.93195C3.5587 9.97849 3.43607 10.0016 3.3125 10C2.84375 10 2.375 9.64453 2.375 9.0625V3.4375C2.375 2.24258 3.02227 1.25 4.25 1.25C5.47773 1.25 6.125 2.21875 6.125 3.41328V8.8332C6.125 10.5129 5.03828 11.875 3.3125 11.875C1.58672 11.875 0.5 10.5133 0.5 8.8332V5.625" stroke="#0060B8" stroke-miterlimit="10" stroke-linecap="round"/>
</svg>
