<svg width="16" height="20" viewBox="0 0 16 20" fill="none" xmlns="http://www.w3.org/2000/svg">
<path d="M11.4375 7.25H13.1562C13.6121 7.25 14.0493 7.43108 14.3716 7.75341C14.6939 8.07574 14.875 8.51291 14.875 8.96875V17.2188C14.875 17.6746 14.6939 18.1118 14.3716 18.4341C14.0493 18.7564 13.6121 18.9375 13.1562 18.9375H2.84375C2.38791 18.9375 1.95074 18.7564 1.62841 18.4341C1.30608 18.1118 1.125 17.6746 1.125 17.2188V8.96875C1.125 8.51291 1.30608 8.07574 1.62841 7.75341C1.95074 7.43108 2.38791 7.25 2.84375 7.25H4.5625M11.4375 4.5L8 1.0625L4.5625 4.5M8 12.793V1.0625" stroke="#0060B8" stroke-width="1.5" stroke-linecap="round" stroke-linejoin="round"/>
</svg>
