<svg width="24" height="20" viewBox="0 0 24 20" fill="none" xmlns="http://www.w3.org/2000/svg">
<path d="M19.5625 3.8125V3.125C19.5609 2.57848 19.3431 2.0548 18.9567 1.66835C18.5702 1.2819 18.0465 1.06409 17.5 1.0625H3.75C3.20348 1.06409 2.6798 1.2819 2.29335 1.66835C1.9069 2.0548 1.68909 2.57848 1.6875 3.125V14.125C1.68909 14.6715 1.9069 15.1952 2.29335 15.5817C2.6798 15.9681 3.20348 16.1859 3.75 16.1875H4.4375" stroke="#297AD8" stroke-width="1.5" stroke-linejoin="round"/>
<path d="M20.3364 4.5H7.10113C6.00975 4.5 5.125 5.38475 5.125 6.47613V16.9614C5.125 18.0528 6.00975 18.9375 7.10113 18.9375H20.3364C21.4278 18.9375 22.3125 18.0528 22.3125 16.9614V6.47613C22.3125 5.38475 21.4278 4.5 20.3364 4.5Z" stroke="#297AD8" stroke-width="1.5" stroke-linejoin="round"/>
<path d="M17.0238 9.75033C17.754 9.75033 18.346 9.16262 18.346 8.43763C18.346 7.71265 17.754 7.12494 17.0238 7.12494C16.2936 7.12494 15.7017 7.71265 15.7017 8.43763C15.7017 9.16262 16.2936 9.75033 17.0238 9.75033Z" stroke="#297AD8" stroke-width="1.5" stroke-miterlimit="10"/>
<path d="M15.7018 14.9917L11.957 11.2796C11.7176 11.0431 11.3974 10.9062 11.0611 10.8965C10.7247 10.8869 10.3972 11.0052 10.1446 11.2276L5.125 15.6564M12.3966 18.9375L17.4923 13.8788C17.7267 13.6475 18.0386 13.5113 18.3676 13.4965C18.6966 13.4817 19.0194 13.5892 19.2737 13.7984L22.3125 16.3125" stroke="#297AD8" stroke-width="1.5" stroke-linecap="round" stroke-linejoin="round"/>
</svg>
