<svg width="17" height="16" viewBox="0 0 17 16" fill="none" xmlns="http://www.w3.org/2000/svg">
<path d="M8.5 16C8.23753 15.9997 7.98124 15.9188 7.76446 15.7679C4.55302 13.545 3.16245 12.0208 2.39545 11.0679C0.760918 9.03667 -0.0216124 6.95125 0.000453752 4.69292C0.0261976 2.105 2.06241 0 4.53954 0C6.34079 0 7.58834 1.03458 8.31489 1.89625C8.33791 1.92327 8.36634 1.94494 8.39828 1.95979C8.43021 1.97463 8.4649 1.98232 8.5 1.98232C8.5351 1.98232 8.56979 1.97463 8.60172 1.95979C8.63366 1.94494 8.6621 1.92327 8.68511 1.89625C9.41166 1.03375 10.6592 0 12.4605 0C14.9376 0 16.9738 2.105 16.9995 4.69333C17.0216 6.95208 16.2383 9.0375 14.6046 11.0683C13.8376 12.0213 12.447 13.5454 9.23554 15.7683C9.01871 15.9191 8.76242 15.9998 8.5 16V16Z" fill="#297AD8"/>
</svg>
