<svg width="20" height="20" viewBox="0 0 20 20" fill="none" xmlns="http://www.w3.org/2000/svg">
<path d="M12.4608 4.35557L7.53918 1.20682C7.34341 1.10902 7.12712 1.05937 6.9083 1.06199C6.68947 1.0646 6.47443 1.11941 6.28105 1.22186L1.42816 4.47803C1.31776 4.53652 1.22538 4.62399 1.16095 4.73103C1.09653 4.83808 1.06249 4.96067 1.0625 5.08561V17.7958C1.06249 17.9143 1.09314 18.0309 1.15148 18.1341C1.20982 18.2373 1.29386 18.3237 1.39544 18.3848C1.49702 18.446 1.61268 18.4798 1.7312 18.4831C1.84972 18.4863 1.96707 18.4588 2.07184 18.4033L6.27504 15.6624C6.47 15.5591 6.68695 15.5042 6.90757 15.5024C7.12819 15.5006 7.346 15.5519 7.54262 15.6521L12.3491 18.7888C12.544 18.8881 12.7598 18.9395 12.9785 18.9386C13.1973 18.9378 13.4126 18.8848 13.6068 18.784L18.5667 15.521C18.6784 15.463 18.7721 15.3754 18.8375 15.2678C18.9029 15.1602 18.9375 15.0368 18.9375 14.9108V2.20412C18.9375 2.08556 18.9069 1.96901 18.8485 1.86579C18.7902 1.76257 18.7061 1.67619 18.6046 1.61504C18.503 1.5539 18.3873 1.52006 18.2688 1.51682C18.1503 1.51358 18.0329 1.54104 17.9282 1.59654L13.7172 4.34053C13.5241 4.44269 13.3093 4.49734 13.0908 4.49995C12.8723 4.50257 12.6564 4.45307 12.4608 4.35557Z" stroke="#297AD8" stroke-width="1.5" stroke-linecap="round" stroke-linejoin="round"/>
<path d="M13.0938 4.5V18.9375" stroke="#297AD8" stroke-width="1.5" stroke-linecap="round" stroke-linejoin="round"/>
<path d="M6.90625 1.0625V15.5" stroke="#297AD8" stroke-width="1.5" stroke-linecap="round" stroke-linejoin="round"/>
</svg>
