<svg width="20" height="20" viewBox="0 0 20 20" fill="none" xmlns="http://www.w3.org/2000/svg">
<path d="M18.3792 15.0703C17.6968 14.3828 16.0442 13.3795 15.2424 12.9751C14.1983 12.4492 14.1124 12.4062 13.2917 13.016C12.7442 13.4229 12.3803 13.7864 11.7396 13.6498C11.099 13.5131 9.70677 12.7427 8.48775 11.5275C7.26872 10.3124 6.45361 8.87979 6.31654 8.24127C6.17946 7.60276 6.549 7.24311 6.95204 6.6944C7.52009 5.92096 7.47712 5.79206 6.99157 4.74792C6.61302 3.93581 5.58048 2.2987 4.8904 1.61979C4.1522 0.890611 4.1522 1.01952 3.67654 1.21717C3.28929 1.38011 2.91778 1.57816 2.56665 1.80885C1.87915 2.26561 1.49759 2.64502 1.23075 3.21522C0.963918 3.78542 0.844035 5.12217 2.22204 7.62553C3.60005 10.1289 4.56685 11.4089 6.5679 13.4044C8.56896 15.3999 10.1077 16.4728 12.3571 17.7344C15.1397 19.2928 16.2071 18.989 16.779 18.7226C17.3509 18.4562 17.732 18.0781 18.1897 17.3906C18.421 17.0401 18.6194 16.669 18.7826 16.282C18.9807 15.8081 19.1096 15.8081 18.3792 15.0703Z" stroke="#88898F" stroke-width="1.5" stroke-miterlimit="10"/>
</svg>
