<svg width="37" height="41" viewBox="0 0 37 41" fill="none" xmlns="http://www.w3.org/2000/svg">
<path d="M4.80658 40.9845C4.12305 40.9832 3.45162 40.804 2.85834 40.4645C1.5224 39.7075 0.691895 38.238 0.691895 36.6427V4.3575C0.691895 2.75771 1.5224 1.29263 2.85834 0.535602C3.46575 0.186517 4.15578 0.00699965 4.8563 0.0158125C5.55682 0.0246253 6.24211 0.221445 6.84055 0.5857L34.4332 17.1023C35.0083 17.4629 35.4823 17.9636 35.8109 18.5576C36.1395 19.1515 36.3119 19.8191 36.3119 20.4978C36.3119 21.1766 36.1395 21.8442 35.8109 22.4381C35.4823 23.0321 35.0083 23.5328 34.4332 23.8934L6.83609 40.4145C6.22367 40.7847 5.52222 40.9817 4.80658 40.9845Z" fill="white" fill-opacity="0.5"/>
</svg>
