<svg width="16" height="20" viewBox="0 0 16 20" fill="none" xmlns="http://www.w3.org/2000/svg">
<path d="M10.75 5.27344C10.75 5.27344 11.7967 4.75781 8 4.75781C6.64026 4.75781 5.31105 5.16102 4.18046 5.91646C3.04987 6.67189 2.16868 7.74562 1.64833 9.00186C1.12798 10.2581 0.991831 11.6404 1.2571 12.9741C1.52238 14.3077 2.17716 15.5327 3.13864 16.4942C4.10013 17.4557 5.32514 18.1104 6.65876 18.3757C7.99238 18.641 9.37471 18.5048 10.631 17.9845C11.8872 17.4641 12.9609 16.5829 13.7164 15.4524C14.4718 14.3218 14.875 12.9926 14.875 11.6328" stroke="#58587E" stroke-width="1.5" stroke-miterlimit="10" stroke-linecap="round"/>
<path d="M8 1.49219L11.4375 4.92969L8 8.36719" stroke="#58587E" stroke-width="1.5" stroke-linecap="round" stroke-linejoin="round"/>
</svg>
