<svg width="19" height="16" viewBox="0 0 19 16" fill="none" xmlns="http://www.w3.org/2000/svg">
<path d="M17.2344 1.125H1.76562C1.10116 1.125 0.5625 1.66366 0.5625 2.32812V13.6719C0.5625 14.3363 1.10116 14.875 1.76562 14.875H17.2344C17.8988 14.875 18.4375 14.3363 18.4375 13.6719V2.32812C18.4375 1.66366 17.8988 1.125 17.2344 1.125Z" stroke="#0060B8" stroke-linejoin="round"/>
<path d="M17.2344 11.4375H16.2031C15.5387 11.4375 15 11.9762 15 12.6406V13.6719C15 14.3363 15.5387 14.875 16.2031 14.875H17.2344C17.8988 14.875 18.4375 14.3363 18.4375 13.6719V12.6406C18.4375 11.9762 17.8988 11.4375 17.2344 11.4375Z" stroke="#0060B8" stroke-linejoin="round"/>
<path d="M17.2344 8H16.2031C15.5387 8 15 8.53866 15 9.20312V10.2344C15 10.8988 15.5387 11.4375 16.2031 11.4375H17.2344C17.8988 11.4375 18.4375 10.8988 18.4375 10.2344V9.20312C18.4375 8.53866 17.8988 8 17.2344 8Z" stroke="#0060B8" stroke-linejoin="round"/>
<path d="M17.2344 4.5625H16.2031C15.5387 4.5625 15 5.10116 15 5.76562V6.79688C15 7.46134 15.5387 8 16.2031 8H17.2344C17.8988 8 18.4375 7.46134 18.4375 6.79688V5.76562C18.4375 5.10116 17.8988 4.5625 17.2344 4.5625Z" stroke="#0060B8" stroke-linejoin="round"/>
<path d="M17.2344 1.125H16.2031C15.5387 1.125 15 1.66366 15 2.32812V3.35938C15 4.02384 15.5387 4.5625 16.2031 4.5625H17.2344C17.8988 4.5625 18.4375 4.02384 18.4375 3.35938V2.32812C18.4375 1.66366 17.8988 1.125 17.2344 1.125Z" stroke="#0060B8" stroke-linejoin="round"/>
<path d="M2.79688 11.4375H1.76562C1.10116 11.4375 0.5625 11.9762 0.5625 12.6406V13.6719C0.5625 14.3363 1.10116 14.875 1.76562 14.875H2.79688C3.46134 14.875 4 14.3363 4 13.6719V12.6406C4 11.9762 3.46134 11.4375 2.79688 11.4375Z" stroke="#0060B8" stroke-linejoin="round"/>
<path d="M2.79688 8H1.76562C1.10116 8 0.5625 8.53866 0.5625 9.20312V10.2344C0.5625 10.8988 1.10116 11.4375 1.76562 11.4375H2.79688C3.46134 11.4375 4 10.8988 4 10.2344V9.20312C4 8.53866 3.46134 8 2.79688 8Z" stroke="#0060B8" stroke-linejoin="round"/>
<path d="M2.79688 4.5625H1.76562C1.10116 4.5625 0.5625 5.10116 0.5625 5.76562V6.79688C0.5625 7.46134 1.10116 8 1.76562 8H2.79688C3.46134 8 4 7.46134 4 6.79688V5.76562C4 5.10116 3.46134 4.5625 2.79688 4.5625Z" stroke="#0060B8" stroke-linejoin="round"/>
<path d="M2.79688 1.125H1.76562C1.10116 1.125 0.5625 1.66366 0.5625 2.32812V3.35938C0.5625 4.02384 1.10116 4.5625 1.76562 4.5625H2.79688C3.46134 4.5625 4 4.02384 4 3.35938V2.32812C4 1.66366 3.46134 1.125 2.79688 1.125Z" stroke="#0060B8" stroke-linejoin="round"/>
<path d="M13.7969 1.125H5.20312C4.53866 1.125 4 1.66366 4 2.32812V6.79688C4 7.46134 4.53866 8 5.20312 8H13.7969C14.4613 8 15 7.46134 15 6.79688V2.32812C15 1.66366 14.4613 1.125 13.7969 1.125Z" stroke="#0060B8" stroke-linejoin="round"/>
<path d="M13.7969 8H5.20312C4.53866 8 4 8.53866 4 9.20312V13.6719C4 14.3363 4.53866 14.875 5.20312 14.875H13.7969C14.4613 14.875 15 14.3363 15 13.6719V9.20312C15 8.53866 14.4613 8 13.7969 8Z" stroke="#0060B8" stroke-linejoin="round"/>
</svg>
