<svg width="20" height="14" viewBox="0 0 20 14" fill="none" xmlns="http://www.w3.org/2000/svg">
<path d="M18.7936 2.60243C18.5828 1.81593 17.9641 1.19535 17.1785 0.983598C15.743 0.589431 10.0001 0.583015 10.0001 0.583015C10.0001 0.583015 4.25806 0.576598 2.82164 0.953348C2.05164 1.16326 1.41547 1.7976 1.20281 2.58318C0.824225 4.01868 0.820558 6.99602 0.820558 6.99602C0.820558 6.99602 0.816891 9.98801 1.19272 11.4088C1.40356 12.1944 2.02231 12.815 2.80881 13.0268C4.25897 13.4209 9.98631 13.4273 9.98631 13.4273C9.98631 13.4273 15.7292 13.4338 17.1647 13.0579C17.9494 12.8471 18.5709 12.2274 18.7845 11.4418C19.164 10.0073 19.1667 7.03085 19.1667 7.03085C19.1667 7.03085 19.1851 4.03793 18.7936 2.60243ZM8.16306 9.75427L8.16764 4.25426L12.9407 7.00885L8.16306 9.75427Z" fill="#1D1D1D"/>
</svg>
